<svg width="931" height="170" viewBox="0 0 931 170" fill="none" xmlns="http://www.w3.org/2000/svg">
<g clip-path="url(#clip0_330_49)">
<g clip-path="url(#clip1_330_49)">
<path d="M1 45.4H31.6C45.3 45.4 50.1 45.8 54.1 47.4C61.7 51 66.2 58.3 66.2 66.7C66.2 74.8 63.8 78.8 55.7 82.8C64.2 85.6 69.8 93.7 69 102.5C69 115.8 58.5 124.6 43.2 124.6H1V111.7H7V58.3H1V45.4ZM23.5 58.3V77.6H39.2C44.8 78 50.1 74 50.5 68.3C50.5 67.9 50.5 67.5 50.5 67.5C50.5 62.3 45.3 58.2 38 58.2H23.5V58.3ZM23.5 90.1V111.8H40.4C46.8 112.2 52.5 107.8 52.9 101.3C52.9 101.3 52.9 101.3 52.9 100.9C52.9 94.1 47.3 89.6 38.8 89.6L23.5 90.1Z" fill="white"/>
<path d="M135.8 105C133 118.3 122.1 126.3 107.6 126.3C90.7002 126.3 78.2002 113 78.2002 94.5C78.2002 76 90.7002 62.7 107.6 62.7C116.9 62.7 125.7 67.1 130.9 75.2C134.9 82 137.3 89.7 136.9 97.7H93.6002C95.2002 113.4 105.3 114.2 108.1 114.2C113.7 114.6 119 110.6 120.6 105.3L135.8 105ZM120.5 87.3C120.5 80.5 114.9 75.2 108.4 75.2H108C101.2 75.2 95.5002 80.4 94.3002 86.9L120.5 87.3Z" fill="white"/>
<path d="M186.2 85.3H214V124.7H205.1V112.2C203.5 115 201.5 117.4 199.1 119.8C193.9 124.2 187.4 126.6 181 126.6C162.5 126.6 148 108.5 148 85.1C148 61.7 162.5 43.2 180.6 43.2C190.7 42.8 199.5 48.4 204.3 56.9V44.6H212.8V70H203.9C203.1 66.4 201.5 63.2 199.5 60.3C195.5 55.1 189 51.8 182.6 51.4C172.9 51.4 158.4 59.9 158.4 84.4C158.4 103.7 168.9 117.8 182.6 117.8C193.5 117.4 202.3 109.3 204.3 98.9C204.7 96.9 204.7 94.5 204.7 92.5H185.8L186.2 85.3Z" fill="white"/>
<path d="M281.5 125.1H264.2V114.2C260.2 121.8 252.1 126.3 243.7 126.3C233.6 127.1 224.8 119.1 224 109C224 108.6 224 108.2 224 107.8C224 96.1 234.1 90.5 258.2 88.1L263.8 87.7V81.7C263.8 74.9 258.6 70.4 250.1 70.4C241.6 70.4 237.2 73.2 235.6 81.3H226.3C227.1 76.5 229.5 72 233.1 68.8C237.5 65.2 243.6 63.6 249.2 63.6C261.7 63.6 272.1 69.2 272.1 84.5V117.9H280.6L281.5 125.1ZM264.2 93.7L258.6 94.5C240.1 96.9 234 100.1 234 107.8C234.4 114.6 240 119.5 246.5 119.5C255.4 119.1 263 112.7 264.2 103.8V93.7Z" fill="white"/>
<path d="M306.9 75.6C309.7 71.6 315 63.1 326.2 63.1C334.3 63.1 338.7 67.1 340.3 75.6C341.9 72.8 343.5 70.4 345.9 68C349.5 64.8 354 62.8 358.8 62.8C368.1 62.8 373.3 68.8 373.3 79.3V117.5H381.8V124.7H364.9V82.5C364.9 74 362 70 356 70C345.5 70 339.9 82.5 339.9 86.9V117.5H348.8V124.7H331.1V81.2C331.1 73.6 328.3 70.3 322.2 70.3C312.9 70.3 306.1 82 306.1 87.6V117.8H315V125H288.8V117.8H297.7V71.2H288.8V64H306.5L306.9 75.6Z" fill="white"/>
<path d="M391 41.8H407.9V76.8C410.3 72.4 417.2 63.5 427.6 63.5C441.3 63.5 451.8 77.6 451.8 95.3C451.8 111.8 440.5 125.9 427.6 125.9C416.7 125.9 411.5 118.7 407.9 113.8V125.1H390.6V117.9H399.1V49H391V41.8ZM407.9 99.4C407.9 109.5 415.5 117.5 425.2 118.3C435.7 118.3 442.1 109 442.1 94.1C442.1 79.2 435.3 70.4 425.2 70.4C416.3 70.4 407.5 80.1 407.5 88.9L407.9 99.4Z" fill="white"/>
<path d="M457 41.8H474.3V117.9H482.4V125.1H456.6V117.9H465.5V48.6H457V41.8Z" fill="white"/>
<path d="M541.5 108.2C540.7 111.8 539.1 114.6 536.7 117.5C531.9 123.1 525 126.4 517.4 126.4C500.9 126.4 489.2 113.5 489.2 95C489.2 77.3 500.9 63.6 515.8 63.6C530.7 63.6 542.8 75.3 542.8 96.6H498.9C499.7 105.5 501.7 110.7 505.7 114.7C508.9 117.5 512.9 119.1 517 119.1C523.8 119.1 528.3 115.9 531.5 108.6L541.5 108.2ZM532.6 89.7C532.6 84.1 530.6 78.8 526.6 74.4C523.8 72 520.2 70.4 516.5 70.8C508.9 71.2 502.4 76.4 500.4 83.7C500 85.7 499.2 87.7 499.2 89.7H532.6Z" fill="white"/>
<path d="M579.7 45.4H599L621.1 112.2H627.1V125.1H609L603.8 107.8H575.6L570.4 125.1H552V112.2H558L579.7 45.4ZM589.4 60.3L578.9 95.7H599.8L589.4 60.3Z" fill="white"/>
<path d="M626.4 64.3H650.6V76H644.6L653.1 111.8L663 64.3H678.7L688.8 111L696.9 76H690.9V64.3H715V76H709.8L696.9 124.7H680.8L670.7 82.8L661 124.7H644.9L631.7 76H626.5L626.4 64.3Z" fill="white"/>
<path d="M772.1 113.4H777.3V125.1H758.4V117.9C754 123.5 747.1 126.4 739.9 126.4C727.8 126.4 718.6 118.3 718.6 107.5C718.6 89.8 738.7 87.8 758 86.2C758 76.9 754.8 74.1 747.1 74.1C739.5 74.1 736.6 77.7 736.2 83.4V83.8L721.7 83.4C722.5 71.3 732.2 63.7 746.7 63.7C763.6 63.7 772.5 71.3 772.5 85L772.1 113.4ZM757.6 96.5C743.5 97.7 734.3 98.9 734.3 107.4C734.3 112.2 738.3 115.5 744.4 115.5C751.6 115.5 757.7 109.9 758.1 102.6V102.2V96.6H757.6V96.5Z" fill="white"/>
<path d="M805.9 74C809.9 66.4 814.4 63.1 821.2 63.1C823.6 63.1 825.6 63.5 828 63.9V78C825.6 77.6 823.2 77.2 820.8 77.2C813.2 76.8 806.7 82.4 806.3 89.7V113H813.5V124.7H785.3V113H791.3V76H785.3V64.3H805.8V74H805.9Z" fill="white"/>
<path d="M888.8 105C886 118.3 875.1 126.3 860.6 126.3C843.7 126.3 831.2 113 831.2 94.5C831.2 76 843.7 62.7 860.6 62.7C869.9 62.7 878.7 67.1 883.9 75.2C887.9 82 890.3 89.7 889.9 97.7H846.4C848 113.4 858.1 114.2 860.9 114.2C866.5 114.6 871.8 110.6 873.4 105.3L888.8 105ZM873.1 87.3C873.1 80.5 867.5 75.2 861 75.2H860.6C853.8 75.2 848.1 80.4 846.9 86.9L873.1 87.3Z" fill="white"/>
<path d="M913.7 9.59998C915.6 9.59998 917.2 10.1 918.2 11C919.3 12 919.8 13.3 919.8 14.9C919.8 16.1 919.5 17.2 919 18.2C918.4 19.1 917.5 19.8 916.3 20.1V20.2C916.9 20.3 917.4 20.5 917.7 20.8C918.1 21.1 918.4 21.4 918.6 21.8C918.8 22.2 919 22.6 919.1 23C919.2 23.5 919.3 23.9 919.3 24.4C919.3 24.9 919.4 25.4 919.4 25.9C919.4 26.4 919.5 26.9 919.5 27.4C919.6 27.9 919.7 28.4 919.8 28.8C919.9 29.2 920.2 29.6 920.4 30H917.4C917.2 29.8 917.1 29.5 917 29.1C916.9 28.7 916.9 28.3 916.9 27.9C916.9 27.5 916.9 27 916.8 26.5C916.8 26 916.7 25.5 916.6 25C916.5 24.5 916.4 24 916.3 23.6C916.2 23.2 916 22.8 915.8 22.4C915.6 22.1 915.2 21.8 914.8 21.6C914.4 21.4 913.9 21.3 913.2 21.3H906.6V30H903.9V9.59998H913.7ZM914.3 18.8C914.9 18.7 915.4 18.5 915.8 18.2C916.2 17.9 916.6 17.6 916.8 17.1C917.1 16.6 917.2 16 917.2 15.3C917.2 14.3 916.9 13.4 916.3 12.8C915.7 12.2 914.8 11.8 913.5 11.8H906.8V19H912.4C913.1 19 913.7 18.9 914.3 18.8Z" fill="white"/>
<path d="M911.8 40.2C900.9 40.2 892.1 31.4 892.1 20.5C892.1 9.59999 900.9 0.799988 911.8 0.799988C922.7 0.799988 931.5 9.59999 931.5 20.5C931.5 31.4 922.6 40.2 911.8 40.2ZM911.8 3.99999C902.7 3.99999 895.3 11.4 895.3 20.5C895.3 29.6 902.7 37 911.8 37C920.9 37 928.3 29.6 928.3 20.5C928.3 11.4 920.9 3.99999 911.8 3.99999Z" fill="white"/>
</g>
</g>
<defs>
<clipPath id="clip0_330_49">
<rect width="931" height="170" fill="white"/>
</clipPath>
<clipPath id="clip1_330_49">
<rect width="930.5" height="128.3" fill="white" transform="translate(1)"/>
</clipPath>
</defs>
</svg>
