<svg width="89" height="28" viewBox="0 0 89 28" fill="none" xmlns="http://www.w3.org/2000/svg">
<path fill-rule="evenodd" clip-rule="evenodd" d="M49.6009 7.84124C49.5564 7.88673 49.52 12.0717 49.52 17.1412V26.3585H51.785H54.05V25.9314C54.05 25.6965 54.0775 25.5044 54.1111 25.5044C54.1447 25.5044 54.3288 25.6225 54.5201 25.767C55.511 26.5152 57.0645 26.8764 58.4528 26.6814C60.0662 26.455 61.2229 25.8676 62.3235 24.7156C63.6642 23.3126 64.2654 21.51 64.1594 19.2115C64.064 17.1459 63.4805 15.7325 62.193 14.449C60.8396 13.0995 59.3559 12.5315 57.3935 12.6111C56.0975 12.6638 55.3438 12.899 54.5515 13.4978L54.0613 13.8684L54.0286 11.4302L53.996 8.99216L53.6852 8.58902C53.221 7.98698 52.8148 7.86228 51.1379 7.80676C50.337 7.78018 49.6455 7.79576 49.6009 7.84124ZM81.7144 7.99605C81.6774 8.0552 81.6573 9.17227 81.6698 10.4783L81.6926 12.8528L80.8678 12.884L80.0431 12.9152V14.7677C80.0431 16.885 79.9726 16.7497 81.0766 16.7497H81.7688L81.7727 19.5523C81.7768 22.5592 81.8405 23.0722 82.3454 24.1639C82.6506 24.8237 83.5028 25.7155 84.1315 26.0331C85.1718 26.5583 87.6224 26.8021 88.5932 26.4767L89 26.3403L88.9707 24.4543L88.9412 22.5684L88.1191 22.5629C87.1856 22.5567 86.848 22.4028 86.5481 21.8467C86.3916 21.5567 86.3545 21.1168 86.3184 19.1252L86.2753 16.7497H87.4647C88.1187 16.7497 88.7307 16.7206 88.8245 16.6849C88.9711 16.6293 88.9951 16.3582 88.9951 14.7665V12.9128L87.6739 12.8828L86.3527 12.8528L86.2988 10.9845C86.2373 8.85593 86.1415 8.55955 85.3759 8.13036C84.9896 7.91374 84.8052 7.89164 83.3661 7.89004C82.4151 7.88907 81.7547 7.93135 81.7144 7.99605ZM70.5128 12.7552C68.2086 13.3073 66.2899 15.1067 65.5162 17.4414C65.274 18.1719 65.2311 18.4939 65.2237 19.6323C65.2164 20.7463 65.2566 21.0993 65.4665 21.7676C65.8471 22.9796 66.318 23.7698 67.1539 24.5994C68.5583 25.9934 70.4456 26.7012 72.7629 26.7027C75.0005 26.7042 76.5241 26.1259 77.923 24.7444C78.3882 24.2849 78.7485 23.8486 78.7237 23.7748C78.6782 23.6396 76.3563 22.203 75.8164 21.9758C75.5585 21.8673 75.4799 21.8908 75.1065 22.1878C73.953 23.1055 71.9035 23.2089 70.7658 22.4069C70.4301 22.1703 69.7969 21.3939 69.7969 21.2189C69.7969 21.1696 71.9203 21.1168 74.5155 21.1015L79.2342 21.0737L79.303 20.5398C79.4086 19.7209 79.22 18.0594 78.9116 17.0931C78.2062 14.8831 76.3494 13.2346 74.0185 12.7493C73.0559 12.5488 71.3622 12.5517 70.5128 12.7552ZM73.4332 16.4936C74.1329 16.7253 74.7202 17.2824 74.9131 17.8974L74.9885 18.1377H72.3926C70.9649 18.1377 69.7969 18.0969 69.7969 18.0469C69.7969 17.88 70.3867 17.0894 70.6817 16.861C71.3642 16.3325 72.492 16.1818 73.4332 16.4936ZM58.2787 17.3627C59.4978 18.0116 59.934 19.798 59.183 21.0666C58.4778 22.2576 56.5866 22.6223 55.3424 21.8071C54.2294 21.078 53.9159 19.2852 54.6973 18.1175C55.4258 17.0288 57.0204 16.6927 58.2787 17.3627Z" fill="#FAFAFA"/>
<path fill-rule="evenodd" clip-rule="evenodd" d="M5.60512 0.412391C4.73516 0.633712 3.9435 0.845212 3.84567 0.882365C3.69737 0.93863 3.95774 1.51686 5.41508 4.36714C6.37607 6.24661 7.22101 7.78433 7.29274 7.78433C7.46725 7.78433 7.56421 5.92877 7.56421 2.58952C7.56421 0.181781 7.5503 -0.00868543 7.37546 0.00028273C7.2716 0.00562092 6.47498 0.19107 5.60512 0.412391ZM12.7003 3.10999C12.6131 3.24398 12.0548 4.26592 11.4593 5.38086C10.4674 7.23844 10.2858 7.75721 10.7173 7.50183C10.9936 7.33816 14.5748 4.3318 14.5748 4.26347C14.5748 4.19898 13.251 3.09675 12.9887 2.94269C12.912 2.89775 12.7936 2.96639 12.7003 3.10999ZM15.0451 7.18794C11.3047 7.89237 8.55562 10.3542 7.56744 13.8844C6.75928 16.7711 7.24463 20.1309 8.80617 22.4597C10.0438 24.3055 11.9708 25.6663 14.2032 26.2712C14.9134 26.4636 15.365 26.5048 16.8398 26.5117C18.8471 26.5209 19.6149 26.3684 21.1686 25.6515L21.9919 25.2715L23.2681 26.5723C23.9699 27.2877 24.6347 27.921 24.7453 27.9797C24.9164 28.0703 25.1467 27.8903 26.2859 26.7755C27.0226 26.0545 27.6253 25.3943 27.6253 25.3082C27.6253 25.2222 27.0207 24.5469 26.2817 23.8076L24.9381 22.4634L25.2549 21.9301C25.4291 21.6367 25.7153 21.0058 25.8909 20.5281C27.2482 16.8357 26.4872 12.6392 23.9841 10.0126C22.7028 8.66812 21.2579 7.82447 19.4282 7.35247C18.2752 7.05502 16.1703 6.97602 15.0451 7.18794ZM35.9841 7.11353C35.224 7.21826 33.8779 7.615 33.1432 7.95109C30.8667 8.99225 29.0933 10.9717 28.2916 13.366C27.8724 14.6178 27.7348 15.4679 27.7348 16.8059C27.7348 21.3782 30.3191 24.9258 34.5887 26.2144C35.4644 26.4788 35.7158 26.5061 37.3323 26.5134C38.9119 26.5205 39.2024 26.4932 39.9171 26.2711C40.9911 25.9373 41.799 25.5225 42.5423 24.923C42.8801 24.6507 43.1605 24.4424 43.1654 24.4603C43.1702 24.4782 43.2795 24.8772 43.4081 25.347L43.6419 26.2011H44.9901H46.3383V20.6494V15.0976L41.8083 15.0696C37.6454 15.0437 37.2675 15.0562 37.1436 15.2234C36.9805 15.4435 36.9547 18.8511 37.1141 19.1013C37.1978 19.2325 37.5874 19.2674 39.2696 19.2946C40.399 19.3128 41.323 19.3522 41.323 19.3821C41.323 19.5219 40.6449 20.3895 40.3287 20.6542C40.1341 20.8171 39.7079 21.0748 39.3816 21.227C38.8461 21.4766 38.6622 21.5035 37.4922 21.5035C36.2457 21.5035 36.1686 21.49 35.4777 21.1536C34.0732 20.4695 33.2385 19.2847 33.0038 17.642C32.6726 15.3241 33.638 13.3101 35.4985 12.4373C36.1554 12.1291 36.2784 12.1083 37.4402 12.1083C38.5602 12.1083 38.7404 12.136 39.2973 12.3944C39.6365 12.5518 40.1511 12.9001 40.441 13.1684C40.7308 13.4368 41.0343 13.6563 41.1155 13.6563C41.319 13.6563 45.0766 11.1825 45.1504 10.9999C45.2245 10.8163 44.8679 10.3473 44.091 9.60668C42.7518 8.32989 41.1221 7.53781 39.1148 7.18805C38.3096 7.04776 36.7339 7.01029 35.9841 7.11353ZM2.83226 10.6709C1.32714 10.8946 0.0551979 11.1176 0.00569216 11.1666C-0.0932114 11.2645 1.12728 14.0058 1.29435 14.0609C1.43435 14.1071 6.10816 10.5658 6.10816 10.4136C6.10816 10.2137 5.68504 10.2469 2.83226 10.6709ZM18.5921 12.3708C20.4353 13.0637 21.6156 15.3614 21.26 17.5646C21.1952 17.9661 21.1328 18.3035 21.1211 18.3148C21.1096 18.3259 20.1051 17.9809 18.889 17.548C17.673 17.1151 16.5931 16.7862 16.4893 16.8173C16.3854 16.8483 16.3005 16.9612 16.3005 17.0683C16.3005 17.1754 16.6403 18.1657 17.0555 19.269C17.4707 20.3723 17.8105 21.3384 17.8105 21.4159C17.8105 21.5214 17.584 21.5569 16.9106 21.5569C15.1014 21.5569 13.7651 20.788 13.0098 19.3127C11.7864 16.9229 12.5014 13.8901 14.5894 12.6127C15.5642 12.0164 17.3604 11.9079 18.5921 12.3708ZM4.81745 15.7404C4.24226 16.7157 3.79541 17.5753 3.82475 17.6508C3.88569 17.8082 5.82094 17.9912 5.9508 17.8518C6.09036 17.702 6.12369 14.0546 5.98585 14.0082C5.91855 13.9856 5.39275 14.7651 4.81745 15.7404Z" fill="#24FB20"/>
</svg>
